<svg xmlns="http://www.w3.org/2000/svg" xmlns:xlink="http://www.w3.org/1999/xlink" width="500" zoomAndPan="magnify" viewBox="0 0 375 374.999991" height="500" preserveAspectRatio="xMidYMid meet" version="1.0"><defs><clipPath id="id1"><path d="M 186 272.46875 L 250 272.46875 L 250 295 L 186 295 Z M 186 272.46875 " clip-rule="nonzero"/></clipPath><clipPath id="id2"><path d="M 124 272.46875 L 187 272.46875 L 187 295 L 124 295 Z M 124 272.46875 " clip-rule="nonzero"/></clipPath><clipPath id="id3"><path d="M 116.839844 294 L 253.339844 294 L 253.339844 300 L 116.839844 300 Z M 116.839844 294 " clip-rule="nonzero"/></clipPath><clipPath id="id4"><path d="M 171 297 L 201 297 L 201 303.21875 L 171 303.21875 Z M 171 297 " clip-rule="nonzero"/></clipPath><clipPath id="id5"><path d="M 112.5 145 L 262.5 145 L 262.5 249.339844 L 112.5 249.339844 Z M 112.5 145 " clip-rule="nonzero"/></clipPath><clipPath id="id6"><path d="M 185 125.589844 L 238 125.589844 L 238 239 L 185 239 Z M 185 125.589844 " clip-rule="nonzero"/></clipPath><clipPath id="id7"><path d="M 144 124.308594 L 230.976562 124.308594 L 230.976562 251.058594 L 144 251.058594 Z M 144 124.308594 " clip-rule="nonzero"/></clipPath><clipPath id="id8"><path d="M 133.101562 112 L 236.601562 112 L 236.601562 263 L 133.101562 263 Z M 133.101562 112 " clip-rule="nonzero"/></clipPath><clipPath id="id9"><path d="M 133.101562 111.71875 L 236.601562 111.71875 L 236.601562 263.21875 L 133.101562 263.21875 Z M 133.101562 111.71875 " clip-rule="nonzero"/></clipPath><clipPath id="id10"><path d="M 136 149 L 236.601562 149 L 236.601562 167 L 136 167 Z M 136 149 " clip-rule="nonzero"/></clipPath><clipPath id="id11"><path d="M 176 115 L 194 115 L 194 263.21875 L 176 263.21875 Z M 176 115 " clip-rule="nonzero"/></clipPath></defs><g clip-path="url(#id1)"><path fill="rgb(98.81897%, 83.918762%, 65.879822%)" d="M 186.394531 287.644531 C 186.394531 287.644531 194.660156 273.058594 241.886719 272.503906 L 249.042969 289.082031 C 249.042969 289.082031 205.042969 292.769531 186.394531 294.648438 L 186.394531 287.644531 " fill-opacity="1" fill-rule="nonzero"/></g><g clip-path="url(#id2)"><path fill="rgb(98.81897%, 83.918762%, 65.879822%)" d="M 186.960938 287.644531 C 186.960938 287.644531 178.683594 273.058594 131.464844 272.503906 L 124.3125 289.082031 C 124.3125 289.082031 168.316406 292.769531 186.960938 294.648438 L 186.960938 287.644531 " fill-opacity="1" fill-rule="nonzero"/></g><g clip-path="url(#id3)"><path fill="rgb(97.648621%, 67.83905%, 18.818665%)" d="M 253.371094 299.980469 L 116.859375 299.980469 L 116.859375 294.648438 L 253.371094 294.648438 L 253.371094 299.980469 " fill-opacity="1" fill-rule="nonzero"/></g><g clip-path="url(#id4)"><path fill="rgb(97.648621%, 67.83905%, 18.818665%)" d="M 200.875 303.183594 L 171.914062 303.183594 L 171.914062 297.316406 L 200.875 297.316406 L 200.875 303.183594 " fill-opacity="1" fill-rule="nonzero"/></g><path fill="rgb(98.81897%, 83.918762%, 65.879822%)" d="M 250.867188 294.648438 L 246.765625 282.117188 C 246.765625 282.117188 233.429688 276.3125 208.394531 282.8125 C 196.757812 285.828125 186.394531 291.445312 186.394531 291.445312 C 186.394531 291.445312 175.835938 284.480469 162.835938 283.058594 C 144.035156 281.003906 126.851562 282.117188 126.851562 282.117188 L 120.929688 294.648438 L 175.84375 294.648438 L 175.84375 297.316406 L 195.953125 297.316406 L 195.953125 294.648438 L 250.867188 294.648438 " fill-opacity="1" fill-rule="nonzero"/><path fill="rgb(97.648621%, 67.83905%, 18.818665%)" d="M 187.441406 69.855469 C 131.523438 69.855469 86.191406 115.1875 86.191406 171.105469 C 86.191406 227.023438 131.523438 272.355469 187.441406 272.355469 C 243.363281 272.355469 288.691406 227.023438 288.691406 171.105469 C 288.691406 115.1875 243.363281 69.855469 187.441406 69.855469 " fill-opacity="1" fill-rule="nonzero"/><path fill="rgb(100%, 100%, 100%)" d="M 260.898438 147.09375 L 114.101562 147.09375 L 114.101562 241.15625 L 176.695312 241.15625 C 177.394531 244.960938 181.632812 247.886719 186.769531 247.886719 C 191.90625 247.886719 196.140625 244.960938 196.839844 241.15625 L 260.898438 241.15625 Z M 260.898438 147.09375 " fill-opacity="1" fill-rule="nonzero"/><g clip-path="url(#id5)"><path fill="rgb(0%, 25.878906%, 61.959839%)" d="M 186.769531 249.328125 C 181.464844 249.328125 176.980469 246.558594 175.59375 242.59375 L 114.101562 242.59375 C 113.308594 242.59375 112.664062 241.949219 112.664062 241.15625 L 112.664062 147.09375 C 112.664062 146.300781 113.308594 145.65625 114.101562 145.65625 L 260.898438 145.65625 C 261.691406 145.65625 262.335938 146.300781 262.335938 147.09375 L 262.335938 241.15625 C 262.335938 241.949219 261.691406 242.59375 260.898438 242.59375 L 197.941406 242.59375 C 196.554688 246.558594 192.070312 249.328125 186.769531 249.328125 Z M 115.542969 239.71875 L 176.695312 239.71875 C 177.390625 239.71875 177.984375 240.214844 178.109375 240.894531 C 178.695312 244.0625 182.414062 246.449219 186.769531 246.449219 C 191.121094 246.449219 194.84375 244.0625 195.425781 240.894531 C 195.550781 240.214844 196.144531 239.71875 196.839844 239.71875 L 259.457031 239.71875 L 259.457031 148.535156 L 115.542969 148.535156 Z M 115.542969 239.71875 " fill-opacity="1" fill-rule="nonzero"/></g><path fill="rgb(100%, 100%, 100%)" d="M 191.925781 234.511719 L 251.648438 234.511719 L 251.648438 143.058594 L 123.25 143.058594 L 123.25 234.511719 L 181.625 234.511719 C 181.625 234.511719 186.902344 241.0625 191.925781 234.511719 Z M 191.925781 234.511719 " fill-opacity="1" fill-rule="nonzero"/><path fill="rgb(0%, 25.878906%, 61.959839%)" d="M 187.023438 238.859375 C 184.191406 238.859375 181.9375 236.917969 180.988281 235.949219 L 123.25 235.949219 C 122.453125 235.949219 121.8125 235.304688 121.8125 234.511719 L 121.8125 143.058594 C 121.8125 142.261719 122.453125 141.621094 123.25 141.621094 L 251.648438 141.621094 C 252.441406 141.621094 253.085938 142.261719 253.085938 143.058594 L 253.085938 234.511719 C 253.085938 235.304688 252.441406 235.949219 251.648438 235.949219 L 192.609375 235.949219 C 190.953125 237.882812 189.074219 238.859375 187.023438 238.859375 Z M 124.6875 233.070312 L 181.625 233.070312 C 182.0625 233.070312 182.472656 233.269531 182.746094 233.609375 C 182.761719 233.628906 184.714844 235.984375 187.023438 235.984375 C 188.324219 235.984375 189.589844 235.195312 190.78125 233.636719 C 191.054688 233.28125 191.476562 233.074219 191.925781 233.074219 L 250.207031 233.074219 L 250.207031 144.496094 L 124.6875 144.496094 Z M 124.6875 233.070312 " fill-opacity="1" fill-rule="nonzero"/><path fill="rgb(100%, 100%, 100%)" d="M 186.964844 237.003906 L 129.542969 230.824219 L 129.542969 131.605469 L 186.964844 142.796875 Z M 186.964844 237.003906 " fill-opacity="1" fill-rule="nonzero"/><path fill="rgb(0%, 25.878906%, 61.959839%)" d="M 186.964844 238.441406 C 186.914062 238.441406 186.859375 238.4375 186.808594 238.433594 L 129.390625 232.253906 C 128.65625 232.175781 128.105469 231.5625 128.105469 230.824219 L 128.105469 131.605469 C 128.105469 131.175781 128.296875 130.769531 128.628906 130.496094 C 128.960938 130.222656 129.394531 130.113281 129.816406 130.195312 L 187.238281 141.382812 C 187.914062 141.515625 188.402344 142.105469 188.402344 142.796875 L 188.402344 237.003906 C 188.402344 237.410156 188.226562 237.800781 187.925781 238.074219 C 187.660156 238.3125 187.316406 238.441406 186.964844 238.441406 Z M 130.980469 229.535156 L 185.523438 235.402344 L 185.523438 143.980469 L 130.980469 133.351562 Z M 130.980469 229.535156 " fill-opacity="1" fill-rule="nonzero"/><path fill="rgb(100%, 100%, 100%)" d="M 186.964844 237.003906 L 244.382812 230.824219 L 244.382812 131.605469 L 186.964844 142.796875 Z M 186.964844 237.003906 " fill-opacity="1" fill-rule="nonzero"/><path fill="rgb(0%, 25.878906%, 61.959839%)" d="M 186.964844 238.441406 C 186.609375 238.441406 186.269531 238.3125 186 238.074219 C 185.699219 237.800781 185.523438 237.410156 185.523438 237.003906 L 185.523438 142.796875 C 185.523438 142.105469 186.011719 141.515625 186.6875 141.382812 L 244.109375 130.195312 C 244.53125 130.109375 244.96875 130.222656 245.296875 130.496094 C 245.628906 130.769531 245.824219 131.175781 245.824219 131.605469 L 245.824219 230.824219 C 245.824219 231.558594 245.269531 232.175781 244.539062 232.253906 L 187.117188 238.433594 C 187.066406 238.4375 187.015625 238.441406 186.964844 238.441406 Z M 188.402344 143.980469 L 188.402344 235.402344 L 242.945312 229.535156 L 242.945312 133.351562 Z M 188.402344 143.980469 " fill-opacity="1" fill-rule="nonzero"/><path fill="rgb(100%, 100%, 100%)" d="M 186.964844 237.417969 L 138.191406 228.253906 L 138.191406 127.507812 L 186.964844 140.5625 Z M 186.964844 237.417969 " fill-opacity="1" fill-rule="nonzero"/><path fill="rgb(0%, 25.878906%, 61.959839%)" d="M 186.964844 238.855469 C 186.875 238.855469 186.785156 238.847656 186.699219 238.832031 L 137.925781 229.667969 C 137.246094 229.539062 136.753906 228.945312 136.753906 228.253906 L 136.753906 127.507812 C 136.753906 127.0625 136.960938 126.640625 137.316406 126.367188 C 137.671875 126.09375 138.132812 126.003906 138.5625 126.117188 L 187.335938 139.171875 C 187.964844 139.339844 188.402344 139.910156 188.402344 140.5625 L 188.402344 237.417969 C 188.402344 237.847656 188.210938 238.253906 187.882812 238.527344 C 187.621094 238.742188 187.296875 238.855469 186.964844 238.855469 Z M 139.628906 227.058594 L 185.523438 235.683594 L 185.523438 141.667969 L 139.628906 129.382812 Z M 139.628906 227.058594 " fill-opacity="1" fill-rule="nonzero"/><path fill="rgb(100%, 100%, 100%)" d="M 208.964844 134.265625 L 186.964844 140.15625 L 186.964844 237.011719 L 235.734375 227.84375 L 235.734375 127.101562 L 221.042969 131.15625 " fill-opacity="1" fill-rule="nonzero"/><g clip-path="url(#id6)"><path fill="rgb(0%, 25.878906%, 61.959839%)" d="M 186.964844 238.449219 C 186.632812 238.449219 186.304688 238.335938 186.042969 238.117188 C 185.714844 237.84375 185.523438 237.4375 185.523438 237.011719 L 185.523438 140.15625 C 185.523438 139.503906 185.960938 138.933594 186.589844 138.765625 L 208.589844 132.878906 C 209.355469 132.671875 210.148438 133.125 210.355469 133.894531 C 210.558594 134.660156 210.105469 135.449219 209.335938 135.65625 L 188.402344 141.257812 L 188.402344 235.277344 L 234.296875 226.652344 L 234.296875 128.992188 L 221.429688 132.542969 C 220.660156 132.753906 219.871094 132.304688 219.65625 131.539062 C 219.445312 130.773438 219.894531 129.980469 220.664062 129.769531 L 235.355469 125.714844 C 235.785156 125.597656 236.25 125.683594 236.609375 125.957031 C 236.964844 126.230469 237.175781 126.652344 237.175781 127.101562 L 237.175781 227.84375 C 237.175781 228.539062 236.683594 229.132812 236.003906 229.257812 L 187.230469 238.425781 C 187.140625 238.441406 187.050781 238.449219 186.964844 238.449219 Z M 186.964844 238.449219 " fill-opacity="1" fill-rule="nonzero"/></g><g clip-path="url(#id7)"><path fill="rgb(0%, 25.878906%, 61.959839%)" d="M 225.109375 219.8125 L 223.222656 217.976562 L 221.761719 216.210938 L 220.53125 214.269531 L 219.339844 211.902344 L 218.613281 210.113281 L 218.480469 209.054688 L 219.769531 203.320312 L 219.804688 202.296875 L 219.59375 201.15625 L 219.273438 200.296875 L 218.941406 199.605469 L 218.71875 198.976562 L 218.476562 198.46875 L 218.070312 197.847656 L 217.667969 197.097656 L 217.453125 196.195312 L 217.691406 194.972656 L 219.019531 192.050781 L 219.4375 190.691406 L 219.507812 188.800781 L 219.214844 184.980469 L 219.332031 183.085938 L 219.714844 182.3125 L 220.347656 181.707031 L 220.921875 181.046875 L 221.125 180.128906 L 220.066406 177.792969 L 215.96875 174.234375 L 214.960938 171.824219 L 215.292969 171.542969 L 216.769531 169.472656 L 217.164062 168.726562 L 217.277344 167.585938 L 217.25 163.144531 L 217.894531 160.300781 L 217.804688 159.042969 L 216.8125 157.859375 L 215.902344 157.589844 L 214.941406 157.765625 L 214.148438 158.054688 L 213.726562 158.148438 L 213.019531 157.570312 L 212.601562 156.835938 L 212.90625 155.960938 L 214.371094 154.976562 L 213.394531 154.109375 L 213.515625 152.621094 L 214.109375 150.703125 L 214.554688 148.570312 L 214.785156 143.855469 L 214.449219 142.167969 L 213.570312 140.496094 L 211.8125 138.808594 L 207.160156 135.308594 L 205.9375 133.386719 L 206.246094 131.117188 L 207.289062 128.871094 L 207.75 126.714844 L 206.304688 124.726562 L 203.878906 124.308594 L 202.097656 124.371094 L 200.527344 124.90625 L 196.710938 127.160156 L 195.453125 127.652344 L 194.117188 127.601562 L 191.84375 127.195312 L 185.222656 126.566406 L 164.941406 127.207031 L 154.382812 126.648438 L 152.128906 127.078125 L 150.542969 129.679688 L 150.628906 132.773438 L 152.4375 138.195312 L 153.183594 142.429688 L 153.761719 152.511719 L 154.757812 157.429688 L 153.800781 163.828125 L 153.757812 165.484375 L 154.285156 167.234375 L 156.359375 171.976562 L 157.082031 174.304688 L 158.238281 179.878906 L 158.257812 181.492188 L 157.976562 182.5625 L 157.617188 182.964844 L 157.1875 183.222656 L 156.695312 183.867188 L 155.890625 185.171875 L 152.75 189 L 151.335938 191.589844 L 150.457031 194.46875 L 149.285156 200.316406 L 148.417969 202.785156 L 145.980469 206.941406 L 144.820312 209.285156 L 144.011719 214.394531 L 144.648438 220.582031 L 146.304688 226.664062 L 148.558594 231.460938 L 150.207031 233.25 L 151.792969 234.375 L 153.007812 235.820312 L 153.53125 238.578125 L 153.28125 240.949219 L 152.386719 242.65625 L 150.785156 243.625 L 148.414062 243.796875 L 147.089844 243.847656 L 146.554688 244.628906 L 157.402344 246.945312 L 159.886719 247.917969 L 165.160156 250.488281 L 167.507812 251.058594 L 170.039062 250.496094 L 177.492188 245.925781 L 180.402344 244.792969 L 189.382812 242.335938 L 195.027344 240 L 206 234.136719 L 211.785156 231.882812 L 214.453125 231.476562 L 219.949219 231.558594 L 222.648438 231.273438 L 225.359375 230.03125 L 228.589844 226.296875 L 230.941406 224.835938 L 229.796875 223.488281 L 225.109375 219.8125 " fill-opacity="1" fill-rule="nonzero"/></g><g clip-path="url(#id8)"><path fill="rgb(100%, 100%, 100%)" d="M 233.1875 162.773438 L 233.1875 150.921875 L 236.113281 149.59375 L 233.1875 145.871094 L 190.613281 145.871094 L 190.613281 133.664062 C 191.914062 125.421875 193.539062 115.808594 193.539062 115.808594 L 190.613281 112.164062 L 173.753906 112.164062 L 173.753906 145.871094 L 133.585938 145.871094 L 133.585938 162.773438 L 136.511719 166.414062 L 173.753906 165.851562 L 173.753906 259.171875 L 176.964844 262.816406 L 180.621094 259.171875 L 190.613281 259.171875 L 190.613281 164.132812 L 192.316406 162.773438 L 233.1875 162.773438 " fill-opacity="1" fill-rule="nonzero"/></g><g clip-path="url(#id9)"><path fill="rgb(100%, 8.628845%, 8.628845%)" d="M 233.1875 162.773438 L 233.613281 162.773438 L 233.613281 151.199219 L 236.292969 149.984375 C 236.414062 149.929688 236.5 149.824219 236.53125 149.695312 C 236.5625 149.566406 236.535156 149.429688 236.453125 149.324219 L 233.523438 145.605469 C 233.441406 145.5 233.316406 145.4375 233.1875 145.4375 L 191.042969 145.4375 L 191.042969 133.664062 L 190.613281 133.664062 L 191.035156 133.730469 C 191.6875 129.613281 192.417969 125.148438 192.988281 121.714844 C 193.273438 119.996094 193.515625 118.539062 193.6875 117.507812 C 193.859375 116.480469 193.964844 115.882812 193.964844 115.878906 C 193.984375 115.757812 193.953125 115.632812 193.875 115.535156 L 190.945312 111.894531 C 190.863281 111.792969 190.742188 111.734375 190.613281 111.734375 L 173.753906 111.734375 C 173.640625 111.734375 173.53125 111.78125 173.449219 111.859375 C 173.367188 111.941406 173.324219 112.050781 173.324219 112.164062 L 173.324219 145.4375 L 133.585938 145.4375 C 133.472656 145.4375 133.359375 145.488281 133.28125 145.566406 C 133.203125 145.644531 133.15625 145.757812 133.15625 145.871094 L 133.15625 162.773438 C 133.15625 162.871094 133.191406 162.96875 133.25 163.046875 L 136.175781 166.6875 C 136.261719 166.789062 136.386719 166.847656 136.519531 166.847656 L 173.324219 166.292969 L 173.324219 259.171875 C 173.324219 259.277344 173.363281 259.378906 173.429688 259.457031 L 176.644531 263.101562 C 176.71875 263.191406 176.832031 263.242188 176.949219 263.25 C 177.070312 263.25 177.183594 263.207031 177.269531 263.121094 L 180.800781 259.605469 L 190.613281 259.605469 C 190.726562 259.605469 190.832031 259.558594 190.914062 259.476562 C 190.996094 259.398438 191.042969 259.289062 191.042969 259.171875 L 191.042969 164.339844 L 192.464844 163.203125 L 233.1875 163.203125 C 233.300781 163.203125 233.410156 163.160156 233.492188 163.078125 C 233.570312 162.996094 233.613281 162.886719 233.613281 162.773438 L 233.1875 162.773438 L 233.1875 162.34375 L 192.316406 162.34375 C 192.21875 162.34375 192.125 162.375 192.046875 162.4375 L 190.34375 163.796875 C 190.242188 163.878906 190.183594 164.003906 190.183594 164.132812 L 190.183594 258.742188 L 180.621094 258.742188 C 180.507812 258.742188 180.398438 258.789062 180.320312 258.867188 L 176.984375 262.1875 L 174.183594 259.011719 L 174.183594 165.851562 C 174.183594 165.738281 174.136719 165.625 174.054688 165.546875 C 173.972656 165.464844 173.863281 165.421875 173.746094 165.421875 L 136.714844 165.980469 L 134.015625 162.621094 L 134.015625 146.300781 L 173.753906 146.300781 C 173.867188 146.300781 173.976562 146.257812 174.058594 146.175781 C 174.140625 146.09375 174.183594 145.988281 174.183594 145.871094 L 174.183594 112.597656 L 190.40625 112.597656 L 193.203125 116.078125 L 193.539062 115.808594 L 193.117188 115.734375 C 193.117188 115.738281 191.488281 125.351562 190.1875 133.59375 L 190.183594 133.664062 L 190.183594 145.871094 C 190.183594 145.984375 190.226562 146.097656 190.308594 146.175781 C 190.386719 146.253906 190.496094 146.300781 190.613281 146.300781 L 232.976562 146.300781 L 235.4375 149.429688 L 233.007812 150.527344 C 232.855469 150.597656 232.757812 150.75 232.757812 150.921875 L 232.757812 162.773438 L 233.1875 162.773438 L 233.1875 162.34375 L 233.1875 162.773438 " fill-opacity="1" fill-rule="nonzero"/></g><g clip-path="url(#id10)"><path fill="rgb(100%, 8.628845%, 8.628845%)" d="M 236.113281 166.414062 L 136.511719 166.414062 L 136.511719 149.511719 L 236.113281 149.511719 L 236.113281 166.414062 " fill-opacity="1" fill-rule="nonzero"/><path fill="rgb(100%, 8.628845%, 8.628845%)" d="M 236.113281 166.414062 L 236.113281 166.199219 L 136.726562 166.199219 L 136.726562 149.730469 L 235.898438 149.730469 L 235.898438 166.414062 L 236.113281 166.414062 L 236.113281 166.199219 L 236.113281 166.414062 L 236.328125 166.414062 L 236.328125 149.296875 L 136.296875 149.296875 L 136.296875 166.632812 L 236.328125 166.632812 L 236.328125 166.414062 L 236.113281 166.414062 " fill-opacity="1" fill-rule="nonzero"/></g><path fill="rgb(100%, 8.628845%, 8.628845%)" d="M 176.683594 262.816406 L 176.683594 115.808594 L 193.539062 115.808594 L 193.539062 262.816406 L 176.683594 262.816406 " fill-opacity="1" fill-rule="nonzero"/><g clip-path="url(#id11)"><path fill="rgb(100%, 8.628845%, 8.628845%)" d="M 176.683594 262.816406 L 176.898438 262.816406 L 176.898438 116.023438 L 193.324219 116.023438 L 193.324219 262.601562 L 176.683594 262.601562 L 176.683594 262.816406 L 176.898438 262.816406 L 176.683594 262.816406 L 176.683594 263.03125 L 193.753906 263.03125 L 193.753906 115.59375 L 176.464844 115.59375 L 176.464844 263.03125 L 176.683594 263.03125 L 176.683594 262.816406 " fill-opacity="1" fill-rule="nonzero"/></g><path fill="rgb(100%, 8.628845%, 8.628845%)" d="M 186.3125 259.488281 C 186.199219 260.101562 186.070312 261.507812 185.8125 262.816406 L 186.089844 262.816406 C 186.289062 261.21875 186.3125 259.488281 186.3125 259.488281 " fill-opacity="1" fill-rule="nonzero"/><path fill="rgb(100%, 8.628845%, 8.628845%)" d="M 191.601562 260.484375 C 191.601562 260.386719 191.601562 260.292969 191.601562 260.199219 L 191.058594 262.816406 L 191.519531 262.816406 C 191.570312 262.074219 191.601562 261.289062 191.601562 260.484375 " fill-opacity="1" fill-rule="nonzero"/></svg>